<svg width="155" height="44" viewBox="0 0 155 44" fill="none" xmlns="http://www.w3.org/2000/svg">
<g filter="url(#filter0_b_116_3)">
<rect x="3" y="3" width="149" height="38" fill="white"/>
<path d="M35.1441 22.8418C35.1441 26.0775 34.1155 28.2585 32.0582 29.3848L35.5445 33.3984H30.7398L28.2203 30.2246L28.2105 30.2148V30.2051L28.2008 30.1953C25.9612 30.1953 24.2424 29.5671 23.0445 28.3105C21.8531 27.054 21.2574 25.2246 21.2574 22.8223C21.2574 20.446 21.8499 18.6328 23.0348 17.3828C24.2262 16.1263 25.9547 15.498 28.2203 15.498C30.4924 15.498 32.2145 16.1198 33.3863 17.3633C34.5582 18.6068 35.1441 20.4329 35.1441 22.8418ZM25.3199 22.8418C25.3199 25.6022 26.2802 26.9824 28.2008 26.9824C29.1773 26.9824 29.9 26.6471 30.3688 25.9766C30.844 25.306 31.0816 24.2611 31.0816 22.8418C31.0816 21.416 30.8408 20.3646 30.359 19.6875C29.8837 19.0039 29.1708 18.6621 28.2203 18.6621C26.2867 18.6621 25.3199 20.0553 25.3199 22.8418ZM54.0609 15.7227V24.3164C54.0609 26.1849 53.5303 27.6335 52.4691 28.6621C51.4145 29.6842 49.891 30.1953 47.8988 30.1953C45.9522 30.1953 44.4548 29.6973 43.4066 28.7012C42.365 27.7051 41.8441 26.2728 41.8441 24.4043V15.7227H45.7211V24.1016C45.7211 25.1107 45.9099 25.8431 46.2875 26.2988C46.6651 26.7546 47.2217 26.9824 47.9574 26.9824C48.7452 26.9824 49.3148 26.7578 49.6664 26.3086C50.0245 25.8529 50.2035 25.1107 50.2035 24.082V15.7227H54.0609ZM70.0188 30L69.3156 27.3242H64.677L63.9543 30H59.716L64.3742 15.6641H69.5207L74.2375 30H70.0188ZM68.5148 24.1602L67.8996 21.8164C67.7564 21.2956 67.5806 20.6217 67.3723 19.7949C67.1704 18.9681 67.037 18.3757 66.9719 18.0176C66.9133 18.3496 66.7961 18.8965 66.6203 19.6582C66.451 20.4199 66.0702 21.9206 65.4777 24.1602H68.5148ZM79.9902 30V15.7227H83.8477V26.8848H89.3457V30H79.9902ZM95.8309 30V15.7227H99.7078V30H95.8309ZM113.302 30H109.445V18.877H105.959V15.7227H116.779V18.877H113.302V30ZM128.118 21.0156L130.579 15.7227H134.758L130.061 24.4238V30H126.174V24.541L121.477 15.7227H125.676L128.118 21.0156Z" fill="#1A202C"/>
<rect x="1.5" y="1.5" width="152" height="41" stroke="#1A202C" stroke-width="3"/>
</g>
<defs>
<filter id="filter0_b_116_3" x="-4" y="-4" width="163" height="52" filterUnits="userSpaceOnUse" color-interpolation-filters="sRGB">
<feFlood flood-opacity="0" result="BackgroundImageFix"/>
<feGaussianBlur in="BackgroundImageFix" stdDeviation="2"/>
<feComposite in2="SourceAlpha" operator="in" result="effect1_backgroundBlur_116_3"/>
<feBlend mode="normal" in="SourceGraphic" in2="effect1_backgroundBlur_116_3" result="shape"/>
</filter>
</defs>
</svg>
