<svg width="155" height="44" viewBox="0 0 155 44" fill="none" xmlns="http://www.w3.org/2000/svg">
<g filter="url(#filter0_b_116_7)">
<g clip-path="url(#clip0_116_7)">
<rect x="3" y="3" width="149" height="38" fill="white"/>
<path d="M28.8438 16.5469C28.8438 21.724 27.1979 25.2135 23.9062 27.0156L29.4844 33.4375H21.7969L17.7656 28.3594L17.75 28.3438V28.3281L17.7344 28.3125C14.151 28.3125 11.401 27.3073 9.48438 25.2969C7.57812 23.2865 6.625 20.3594 6.625 16.5156C6.625 12.7135 7.57292 9.8125 9.46875 7.8125C11.375 5.80208 14.1406 4.79688 17.7656 4.79688C21.401 4.79688 24.1562 5.79167 26.0312 7.78125C27.9062 9.77083 28.8438 12.6927 28.8438 16.5469ZM13.125 16.5469C13.125 20.9635 14.6615 23.1719 17.7344 23.1719C19.2969 23.1719 20.4531 22.6354 21.2031 21.5625C21.9635 20.4896 22.3438 18.8177 22.3438 16.5469C22.3438 14.2656 21.9583 12.5833 21.1875 11.5C20.4271 10.4062 19.2865 9.85938 17.7656 9.85938C14.6719 9.85938 13.125 12.0885 13.125 16.5469ZM52.3906 5.15625V18.9062C52.3906 21.8958 51.5417 24.2135 49.8438 25.8594C48.1562 27.4948 45.7188 28.3125 42.5312 28.3125C39.4167 28.3125 37.0208 27.5156 35.3438 25.9219C33.6771 24.3281 32.8438 22.0365 32.8438 19.0469V5.15625H39.0469V18.5625C39.0469 20.1771 39.349 21.349 39.9531 22.0781C40.5573 22.8073 41.4479 23.1719 42.625 23.1719C43.8854 23.1719 44.7969 22.8125 45.3594 22.0938C45.9323 21.3646 46.2188 20.1771 46.2188 18.5312V5.15625H52.3906ZM71.2031 28L70.0781 23.7188H62.6562L61.5 28H54.7188L62.1719 5.0625H70.4062L77.9531 28H71.2031ZM68.7969 18.6562L67.8125 14.9062C67.5833 14.0729 67.3021 12.9948 66.9688 11.6719C66.6458 10.349 66.4323 9.40104 66.3281 8.82812C66.2344 9.35938 66.0469 10.2344 65.7656 11.4531C65.4948 12.6719 64.8854 15.0729 63.9375 18.6562H68.7969ZM80.4375 28V5.15625H86.6094V23.0156H95.4062V28H80.4375ZM99.0625 28V5.15625H105.266V28H99.0625ZM120.297 28H114.125V10.2031H108.547V5.15625H125.859V10.2031H120.297V28ZM137.281 13.625L141.219 5.15625H147.906L140.391 19.0781V28H134.172V19.2656L126.656 5.15625H133.375L137.281 13.625Z" fill="#1A202C"/>
<path d="M38.1797 33.0186C37.61 33.0186 37.1689 33.2334 36.8564 33.6631C36.5439 34.0895 36.3877 34.6852 36.3877 35.4502C36.3877 37.042 36.985 37.8379 38.1797 37.8379C38.681 37.8379 39.2881 37.7126 40.001 37.4619V38.7314C39.415 38.9756 38.7607 39.0977 38.0381 39.0977C36.9997 39.0977 36.2054 38.7835 35.6553 38.1553C35.1051 37.5238 34.8301 36.6188 34.8301 35.4404C34.8301 34.6982 34.9652 34.0488 35.2354 33.4922C35.5055 32.9323 35.8929 32.5042 36.3975 32.208C36.9053 31.9085 37.4993 31.7588 38.1797 31.7588C38.873 31.7588 39.5697 31.9264 40.2695 32.2617L39.7812 33.4922C39.5143 33.3652 39.2458 33.2546 38.9756 33.1602C38.7054 33.0658 38.4401 33.0186 38.1797 33.0186ZM48.0039 35.4209C48.0039 36.6025 47.7109 37.5107 47.125 38.1455C46.5391 38.7803 45.6992 39.0977 44.6055 39.0977C43.5117 39.0977 42.6719 38.7803 42.0859 38.1455C41.5 37.5107 41.207 36.5993 41.207 35.4111C41.207 34.223 41.5 33.3164 42.0859 32.6914C42.6751 32.0632 43.5182 31.749 44.6152 31.749C45.7122 31.749 46.5505 32.0648 47.1299 32.6963C47.7126 33.3278 48.0039 34.236 48.0039 35.4209ZM42.7939 35.4209C42.7939 36.2184 42.9453 36.819 43.248 37.2227C43.5508 37.6263 44.0033 37.8281 44.6055 37.8281C45.8132 37.8281 46.417 37.0257 46.417 35.4209C46.417 33.8128 45.8164 33.0088 44.6152 33.0088C44.013 33.0088 43.5589 33.2122 43.2529 33.6191C42.9469 34.0228 42.7939 34.6234 42.7939 35.4209ZM55.8164 39H53.8926L50.7871 33.5996H50.7432C50.805 34.5534 50.8359 35.2337 50.8359 35.6406V39H49.4834V31.8613H51.3926L54.4932 37.208H54.5273C54.4785 36.2803 54.4541 35.6243 54.4541 35.2402V31.8613H55.8164V39ZM61.832 37.0176C61.832 37.6621 61.5993 38.1699 61.1338 38.541C60.6715 38.9121 60.027 39.0977 59.2002 39.0977C58.4385 39.0977 57.7646 38.9544 57.1787 38.668V37.2617C57.6605 37.4766 58.0674 37.6279 58.3994 37.7158C58.7347 37.8037 59.0407 37.8477 59.3174 37.8477C59.6494 37.8477 59.9033 37.7842 60.0791 37.6572C60.2581 37.5303 60.3477 37.3415 60.3477 37.0908C60.3477 36.9508 60.3086 36.8271 60.2305 36.7197C60.1523 36.609 60.0368 36.5033 59.8838 36.4023C59.734 36.3014 59.4264 36.1403 58.9609 35.9189C58.5247 35.7139 58.1976 35.5169 57.9795 35.3281C57.7614 35.1393 57.5872 34.9196 57.457 34.6689C57.3268 34.4183 57.2617 34.1253 57.2617 33.79C57.2617 33.1585 57.4749 32.6621 57.9014 32.3008C58.3311 31.9395 58.9235 31.7588 59.6787 31.7588C60.0498 31.7588 60.403 31.8027 60.7383 31.8906C61.0768 31.9785 61.43 32.1022 61.7979 32.2617L61.3096 33.4385C60.9287 33.2822 60.613 33.1732 60.3623 33.1113C60.1149 33.0495 59.8708 33.0186 59.6299 33.0186C59.3434 33.0186 59.1237 33.0853 58.9707 33.2188C58.8177 33.3522 58.7412 33.5264 58.7412 33.7412C58.7412 33.8747 58.7721 33.9919 58.834 34.0928C58.8958 34.1904 58.9935 34.2865 59.127 34.3809C59.2637 34.472 59.5843 34.638 60.0889 34.8789C60.7562 35.1979 61.2135 35.5186 61.4609 35.8408C61.7083 36.1598 61.832 36.5521 61.832 37.0176ZM65.8799 39H64.3662V33.1211H62.4277V31.8613H67.8184V33.1211H65.8799V39ZM70.4307 35.0303H70.9189C71.3975 35.0303 71.7507 34.9505 71.9785 34.791C72.2064 34.6315 72.3203 34.3809 72.3203 34.0391C72.3203 33.7005 72.2031 33.4596 71.9688 33.3164C71.7376 33.1732 71.3779 33.1016 70.8896 33.1016H70.4307V35.0303ZM70.4307 36.2607V39H68.917V31.8613H70.9971C71.9671 31.8613 72.6849 32.0387 73.1504 32.3936C73.6159 32.7451 73.8486 33.2806 73.8486 34C73.8486 34.4199 73.7331 34.7943 73.502 35.123C73.2708 35.4486 72.9437 35.7041 72.5205 35.8896C73.5947 37.4945 74.2946 38.5312 74.6201 39H72.9404L71.2363 36.2607H70.4307ZM81.3291 31.8613V36.4805C81.3291 37.0078 81.2103 37.4701 80.9727 37.8672C80.7383 38.2643 80.3981 38.5687 79.9521 38.7803C79.5062 38.9919 78.9788 39.0977 78.3701 39.0977C77.4521 39.0977 76.7393 38.8633 76.2314 38.3945C75.7236 37.9225 75.4697 37.278 75.4697 36.4609V31.8613H76.9785V36.2314C76.9785 36.7816 77.0892 37.1852 77.3105 37.4424C77.5319 37.6995 77.8981 37.8281 78.4092 37.8281C78.904 37.8281 79.262 37.6995 79.4834 37.4424C79.708 37.182 79.8203 36.7751 79.8203 36.2217V31.8613H81.3291ZM86.1094 33.0186C85.5397 33.0186 85.0986 33.2334 84.7861 33.6631C84.4736 34.0895 84.3174 34.6852 84.3174 35.4502C84.3174 37.042 84.9147 37.8379 86.1094 37.8379C86.6107 37.8379 87.2178 37.7126 87.9307 37.4619V38.7314C87.3447 38.9756 86.6904 39.0977 85.9678 39.0977C84.9294 39.0977 84.1351 38.7835 83.585 38.1553C83.0348 37.5238 82.7598 36.6188 82.7598 35.4404C82.7598 34.6982 82.8949 34.0488 83.165 33.4922C83.4352 32.9323 83.8226 32.5042 84.3271 32.208C84.835 31.9085 85.429 31.7588 86.1094 31.7588C86.8027 31.7588 87.4993 31.9264 88.1992 32.2617L87.7109 33.4922C87.444 33.3652 87.1755 33.2546 86.9053 33.1602C86.6351 33.0658 86.3698 33.0186 86.1094 33.0186ZM92.208 39H90.6943V33.1211H88.7559V31.8613H94.1465V33.1211H92.208V39ZM95.2451 39V31.8613H96.7588V39H95.2451ZM105.035 35.4209C105.035 36.6025 104.742 37.5107 104.156 38.1455C103.57 38.7803 102.73 39.0977 101.637 39.0977C100.543 39.0977 99.7031 38.7803 99.1172 38.1455C98.5312 37.5107 98.2383 36.5993 98.2383 35.4111C98.2383 34.223 98.5312 33.3164 99.1172 32.6914C99.7064 32.0632 100.549 31.749 101.646 31.749C102.743 31.749 103.582 32.0648 104.161 32.6963C104.744 33.3278 105.035 34.236 105.035 35.4209ZM99.8252 35.4209C99.8252 36.2184 99.9766 36.819 100.279 37.2227C100.582 37.6263 101.035 37.8281 101.637 37.8281C102.844 37.8281 103.448 37.0257 103.448 35.4209C103.448 33.8128 102.848 33.0088 101.646 33.0088C101.044 33.0088 100.59 33.2122 100.284 33.6191C99.9782 34.0228 99.8252 34.6234 99.8252 35.4209ZM112.848 39H110.924L107.818 33.5996H107.774C107.836 34.5534 107.867 35.2337 107.867 35.6406V39H106.515V31.8613H108.424L111.524 37.208H111.559C111.51 36.2803 111.485 35.6243 111.485 35.2402V31.8613H112.848V39Z" fill="#1A202C"/>
</g>
<rect x="1.5" y="1.5" width="152" height="41" stroke="#1A202C" stroke-width="3"/>
</g>
<defs>
<filter id="filter0_b_116_7" x="-4" y="-4" width="163" height="52" filterUnits="userSpaceOnUse" color-interpolation-filters="sRGB">
<feFlood flood-opacity="0" result="BackgroundImageFix"/>
<feGaussianBlur in="BackgroundImageFix" stdDeviation="2"/>
<feComposite in2="SourceAlpha" operator="in" result="effect1_backgroundBlur_116_7"/>
<feBlend mode="normal" in="SourceGraphic" in2="effect1_backgroundBlur_116_7" result="shape"/>
</filter>
<clipPath id="clip0_116_7">
<rect x="3" y="3" width="149" height="38" fill="white"/>
</clipPath>
</defs>
</svg>
