<svg width="155" height="44" viewBox="0 0 155 44" fill="none" xmlns="http://www.w3.org/2000/svg">
<g filter="url(#filter0_b_116_7)">
<rect x="3" y="3" width="149" height="38" fill="white"/>
<path d="M46.9469 16.4187C46.9469 20.7497 45.57 23.6689 42.8163 25.1765L47.4828 30.5488H41.0517L37.6793 26.3006L37.6662 26.2876V26.2745L37.6531 26.2614C34.6554 26.2614 32.3549 25.4205 30.7515 23.7387C29.1568 22.0568 28.3594 19.6081 28.3594 16.3926C28.3594 13.2119 29.1524 10.785 30.7384 9.11183C32.3331 7.42999 34.6467 6.58907 37.6793 6.58907C40.7205 6.58907 43.0255 7.42127 44.594 9.08569C46.1626 10.7501 46.9469 13.1944 46.9469 16.4187ZM33.7971 16.4187C33.7971 20.1135 35.0824 21.961 37.6531 21.961C38.9603 21.961 39.9276 21.5122 40.555 20.6146C41.1911 19.717 41.5092 18.3184 41.5092 16.4187C41.5092 14.5103 41.1868 13.1029 40.5419 12.1967C39.9058 11.2817 38.9516 10.8242 37.6793 10.8242C35.0912 10.8242 33.7971 12.689 33.7971 16.4187ZM59.4924 14.3541V21.3639C59.4924 22.8881 59.0596 24.0696 58.194 24.9087C57.3337 25.7424 56.091 26.1593 54.466 26.1593C52.8782 26.1593 51.6568 25.7531 50.8018 24.9406C49.9521 24.1281 49.5273 22.9597 49.5273 21.4356V14.3541H52.6897V21.1887C52.6897 22.0118 52.8437 22.6093 53.1517 22.981C53.4597 23.3527 53.9137 23.5386 54.5138 23.5386C55.1564 23.5386 55.6211 23.3554 55.9078 22.989C56.1999 22.6172 56.3459 22.0118 56.3459 21.1728V14.3541H59.4924ZM69.0831 26L68.5096 23.8174H64.7259L64.1364 26H60.6793L64.479 14.3063H68.6769L72.5243 26H69.0831ZM67.8564 21.2365L67.3546 19.3247C67.2377 18.8999 67.0944 18.3502 66.9244 17.6758C66.7598 17.0014 66.6509 16.5181 66.5978 16.2261C66.55 16.4969 66.4545 16.943 66.3111 17.5643C66.173 18.1856 65.8623 19.4097 65.3791 21.2365H67.8564ZM73.7909 26V14.3541H76.9373V23.4589H81.4221V26H73.7909ZM83.286 26V14.3541H86.4484V26H83.286ZM94.1115 26H90.965V16.927H88.1212V14.3541H96.9473V16.927H94.1115V26ZM102.77 18.6715L104.778 14.3541H108.187L104.355 21.4516V26H101.185V21.5472L97.3535 14.3541H100.779L102.77 18.6715Z" fill="#1A202C"/>
<path d="M52.2634 30.4149C51.7343 30.4149 51.3246 30.6145 51.0344 31.0136C50.7441 31.4097 50.599 31.963 50.599 32.6735C50.599 34.152 51.1538 34.8913 52.2634 34.8913C52.7291 34.8913 53.2929 34.7749 53.9551 34.5421V35.7213C53.4109 35.948 52.8031 36.0614 52.1319 36.0614C51.1674 36.0614 50.4296 35.7696 49.9187 35.1861C49.4077 34.5995 49.1522 33.759 49.1522 32.6645C49.1522 31.9751 49.2777 31.3719 49.5286 30.8549C49.7796 30.3348 50.1394 29.9372 50.608 29.6621C51.0797 29.3839 51.6315 29.2448 52.2634 29.2448C52.9074 29.2448 53.5545 29.4005 54.2045 29.712L53.751 30.8549C53.5031 30.7369 53.2536 30.6341 53.0027 30.5465C52.7517 30.4588 52.5053 30.4149 52.2634 30.4149ZM61.3885 32.6463C61.3885 33.7439 61.1164 34.5874 60.5721 35.177C60.0279 35.7666 59.2478 36.0614 58.2319 36.0614C57.216 36.0614 56.4359 35.7666 55.8917 35.177C55.3474 34.5874 55.0753 33.7408 55.0753 32.6372C55.0753 31.5336 55.3474 30.6916 55.8917 30.1111C56.4389 29.5275 57.222 29.2358 58.241 29.2358C59.2599 29.2358 60.0385 29.529 60.5767 30.1156C61.1179 30.7022 61.3885 31.5457 61.3885 32.6463ZM56.5493 32.6463C56.5493 33.3871 56.6899 33.9449 56.9711 34.3198C57.2523 34.6948 57.6726 34.8822 58.2319 34.8822C59.3536 34.8822 59.9145 34.1369 59.9145 32.6463C59.9145 31.1527 59.3567 30.4059 58.241 30.4059C57.6816 30.4059 57.2598 30.5948 56.9756 30.9728C56.6914 31.3477 56.5493 31.9055 56.5493 32.6463ZM68.645 35.9707H66.8581L63.9736 30.9546H63.9328C63.9903 31.8405 64.019 32.4725 64.019 32.8504V35.9707H62.7627V29.3401H64.536L67.4159 34.3062H67.4477C67.4023 33.4445 67.3796 32.8353 67.3796 32.4785V29.3401H68.645V35.9707ZM74.2325 34.1294C74.2325 34.728 74.0163 35.1997 73.584 35.5444C73.1546 35.8891 72.556 36.0614 71.788 36.0614C71.0805 36.0614 70.4546 35.9284 69.9104 35.6623V34.3561C70.3578 34.5557 70.7358 34.6963 71.0442 34.7779C71.3556 34.8595 71.6398 34.9004 71.8968 34.9004C72.2052 34.9004 72.4411 34.8414 72.6043 34.7235C72.7706 34.6056 72.8538 34.4302 72.8538 34.1974C72.8538 34.0674 72.8175 33.9525 72.7449 33.8527C72.6724 33.7499 72.565 33.6516 72.4229 33.5579C72.2838 33.4642 71.9981 33.3145 71.5657 33.1089C71.1606 32.9184 70.8567 32.7355 70.6541 32.5601C70.4516 32.3848 70.2898 32.1807 70.1689 31.9479C70.0479 31.7151 69.9875 31.4429 69.9875 31.1315C69.9875 30.5449 70.1855 30.0839 70.5816 29.7482C70.9807 29.4126 71.531 29.2448 72.2324 29.2448C72.5771 29.2448 72.9052 29.2856 73.2166 29.3673C73.5311 29.4489 73.8591 29.5638 74.2008 29.712L73.7472 30.805C73.3935 30.6598 73.1002 30.5586 72.8674 30.5011C72.6376 30.4437 72.4108 30.4149 72.1871 30.4149C71.921 30.4149 71.7169 30.4769 71.5748 30.6009C71.4327 30.7249 71.3617 30.8866 71.3617 31.0862C71.3617 31.2101 71.3904 31.319 71.4478 31.4127C71.5053 31.5034 71.596 31.5926 71.7199 31.6803C71.8469 31.765 72.1448 31.9192 72.6134 32.1429C73.2332 32.4392 73.658 32.737 73.8878 33.0364C74.1176 33.3327 74.2325 33.697 74.2325 34.1294ZM77.9923 35.9707H76.5863V30.5102H74.7858V29.3401H79.7928V30.5102H77.9923V35.9707ZM82.2192 32.2835H82.6727C83.1172 32.2835 83.4453 32.2094 83.6569 32.0613C83.8686 31.9131 83.9744 31.6803 83.9744 31.3628C83.9744 31.0484 83.8655 30.8246 83.6478 30.6916C83.4332 30.5586 83.0991 30.492 82.6455 30.492H82.2192V32.2835ZM82.2192 33.4264V35.9707H80.8133V29.3401H82.7453C83.6463 29.3401 84.313 29.5048 84.7454 29.8344C85.1778 30.161 85.3939 30.6583 85.3939 31.3265C85.3939 31.7166 85.2866 32.0643 85.0719 32.3697C84.8573 32.672 84.5534 32.9094 84.1603 33.0817C85.1581 34.5723 85.8082 35.5353 86.1105 35.9707H84.5504L82.9675 33.4264H82.2192ZM92.342 29.3401V33.6305C92.342 34.1203 92.2317 34.5496 92.011 34.9185C91.7933 35.2874 91.4773 35.5701 91.0631 35.7666C90.6489 35.9631 90.159 36.0614 89.5936 36.0614C88.741 36.0614 88.0788 35.8437 87.6072 35.4083C87.1355 34.9699 86.8997 34.3712 86.8997 33.6123V29.3401H88.3011V33.3992C88.3011 33.9102 88.4039 34.2851 88.6095 34.5239C88.8151 34.7628 89.1552 34.8822 89.6299 34.8822C90.0895 34.8822 90.4221 34.7628 90.6277 34.5239C90.8363 34.2821 90.9406 33.9041 90.9406 33.3901V29.3401H92.342ZM96.7821 30.4149C96.253 30.4149 95.8433 30.6145 95.553 31.0136C95.2628 31.4097 95.1177 31.963 95.1177 32.6735C95.1177 34.152 95.6725 34.8913 96.7821 34.8913C97.2477 34.8913 97.8116 34.7749 98.4738 34.5421V35.7213C97.9296 35.948 97.3218 36.0614 96.6506 36.0614C95.6861 36.0614 94.9483 35.7696 94.4374 35.1861C93.9264 34.5995 93.6709 33.759 93.6709 32.6645C93.6709 31.9751 93.7964 31.3719 94.0473 30.8549C94.2983 30.3348 94.6581 29.9372 95.1267 29.6621C95.5984 29.3839 96.1502 29.2448 96.7821 29.2448C97.4261 29.2448 98.0732 29.4005 98.7232 29.712L98.2697 30.8549C98.0218 30.7369 97.7723 30.6341 97.5214 30.5465C97.2704 30.4588 97.024 30.4149 96.7821 30.4149ZM102.447 35.9707H101.041V30.5102H99.2403V29.3401H104.247V30.5102H102.447V35.9707ZM105.268 35.9707V29.3401H106.674V35.9707H105.268ZM114.361 32.6463C114.361 33.7439 114.089 34.5874 113.545 35.177C113 35.7666 112.22 36.0614 111.204 36.0614C110.189 36.0614 109.408 35.7666 108.864 35.177C108.32 34.5874 108.048 33.7408 108.048 32.6372C108.048 31.5336 108.32 30.6916 108.864 30.1111C109.411 29.5275 110.195 29.2358 111.214 29.2358C112.232 29.2358 113.011 29.529 113.549 30.1156C114.09 30.7022 114.361 31.5457 114.361 32.6463ZM109.522 32.6463C109.522 33.3871 109.662 33.9449 109.944 34.3198C110.225 34.6948 110.645 34.8822 111.204 34.8822C112.326 34.8822 112.887 34.1369 112.887 32.6463C112.887 31.1527 112.329 30.4059 111.214 30.4059C110.654 30.4059 110.232 30.5948 109.948 30.9728C109.664 31.3477 109.522 31.9055 109.522 32.6463ZM121.618 35.9707H119.831L116.946 30.9546H116.905C116.963 31.8405 116.992 32.4725 116.992 32.8504V35.9707H115.735V29.3401H117.509L120.388 34.3062H120.42C120.375 33.4445 120.352 32.8353 120.352 32.4785V29.3401H121.618V35.9707Z" fill="#1A202C"/>
<rect x="1.5" y="1.5" width="152" height="41" stroke="#1A202C" stroke-width="3"/>
</g>
<defs>
<filter id="filter0_b_116_7" x="-4" y="-4" width="163" height="52" filterUnits="userSpaceOnUse" color-interpolation-filters="sRGB">
<feFlood flood-opacity="0" result="BackgroundImageFix"/>
<feGaussianBlur in="BackgroundImageFix" stdDeviation="2"/>
<feComposite in2="SourceAlpha" operator="in" result="effect1_backgroundBlur_116_7"/>
<feBlend mode="normal" in="SourceGraphic" in2="effect1_backgroundBlur_116_7" result="shape"/>
</filter>
</defs>
</svg>
