<svg width="155" height="44" viewBox="0 0 155 44" fill="none" xmlns="http://www.w3.org/2000/svg">
<g clip-path="url(#clip0_117_36)">
<path d="M152 3H3V41H152V3Z" fill="white"/>
<path d="M41.6745 19.5106C41.6745 23.3481 40.4545 25.9348 38.0145 27.2706L42.1494 32.0309H36.4509L33.4627 28.2667L33.4511 28.2551V28.2435L33.4396 28.2319C30.7834 28.2319 28.7449 27.4868 27.3242 25.9966C25.9112 24.5063 25.2046 22.3366 25.2046 19.4874C25.2046 16.6691 25.9073 14.5187 27.3126 13.0361C28.7256 11.5459 30.7757 10.8008 33.4627 10.8008C36.1575 10.8008 38.1998 11.5382 39.5897 13.013C40.9796 14.4878 41.6745 16.6536 41.6745 19.5106ZM30.0228 19.5106C30.0228 22.7845 31.1617 24.4214 33.4396 24.4214C34.5978 24.4214 35.4549 24.0238 36.0108 23.2284C36.5745 22.4331 36.8563 21.1938 36.8563 19.5106C36.8563 17.8196 36.5706 16.5726 35.9992 15.7695C35.4356 14.9588 34.5901 14.5534 33.4627 14.5534C31.1695 14.5534 30.0228 16.2058 30.0228 19.5106ZM59.1288 11.0672V21.2595C59.1288 23.4755 58.4995 25.1936 57.2409 26.4135C55.99 27.6258 54.1832 28.2319 51.8205 28.2319C49.5118 28.2319 47.7358 27.6413 46.4927 26.4599C45.2572 25.2785 44.6395 23.5798 44.6395 21.3637V11.0672H49.2376V21.0047C49.2376 22.2015 49.4616 23.0702 49.9094 23.6107C50.3573 24.1512 51.0174 24.4214 51.89 24.4214C52.8243 24.4214 53.4999 24.155 53.9168 23.6222C54.3415 23.0817 54.5539 22.2015 54.5539 20.9815V11.0672H59.1288ZM73.0737 28.0003L72.2398 24.8268H66.7383L65.8812 28.0003H60.8546L66.3792 10.9977H72.483L78.0772 28.0003H73.0737ZM71.2901 21.0742L70.5604 18.2944C70.3905 17.6767 70.1821 16.8776 69.935 15.8969C69.6956 14.9163 69.5373 14.2137 69.4601 13.789C69.3906 14.1828 69.2516 14.8314 69.0431 15.7348C68.8424 16.6382 68.3907 18.418 67.688 21.0742H71.2901ZM79.9188 28.0003V11.0672H84.4938V24.3056H91.0145V28.0003H79.9188ZM93.7247 28.0003V11.0672H98.3229V28.0003H93.7247ZM109.465 28.0003H104.89V14.8082H100.755V11.0672H113.588V14.8082H109.465V28.0003ZM122.055 17.3447L124.973 11.0672H129.93L124.359 21.3869V28.0003H119.75V21.5259L114.179 11.0672H119.159L122.055 17.3447Z" fill="#1A202C"/>
<path d="M51.7888 32.6785C51.3958 32.6785 51.0915 32.8267 50.8759 33.1231C50.6604 33.4173 50.5526 33.8283 50.5526 34.356C50.5526 35.4541 50.9646 36.0032 51.7888 36.0032C52.1346 36.0032 52.5534 35.9167 53.0452 35.7438V36.6196C52.641 36.788 52.1896 36.8723 51.6911 36.8723C50.9747 36.8723 50.4268 36.6556 50.0473 36.2221C49.6678 35.7865 49.478 35.1622 49.478 34.3493C49.478 33.8373 49.5712 33.3892 49.7576 33.0052C49.944 32.619 50.2112 32.3237 50.5593 32.1193C50.9096 31.9127 51.3195 31.8094 51.7888 31.8094C52.2671 31.8094 52.7477 31.9251 53.2305 32.1564L52.8937 33.0052C52.7095 32.9177 52.5242 32.8413 52.3379 32.7762C52.1515 32.7111 51.9684 32.6785 51.7888 32.6785ZM58.5662 34.3358C58.5662 35.151 58.3641 35.7775 57.9599 36.2154C57.5556 36.6533 56.9763 36.8723 56.2217 36.8723C55.4672 36.8723 54.8878 36.6533 54.4836 36.2154C54.0794 35.7775 53.8773 35.1487 53.8773 34.3291C53.8773 33.5094 54.0794 32.884 54.4836 32.4528C54.89 32.0194 55.4717 31.8027 56.2285 31.8027C56.9852 31.8027 57.5635 32.0205 57.9632 32.4562C58.3652 32.8918 58.5662 33.5184 58.5662 34.3358ZM54.972 34.3358C54.972 34.886 55.0764 35.3003 55.2853 35.5788C55.4941 35.8572 55.8063 35.9965 56.2217 35.9965C57.0549 35.9965 57.4714 35.4429 57.4714 34.3358C57.4714 33.2264 57.0571 32.6718 56.2285 32.6718C55.813 32.6718 55.4997 32.8121 55.2887 33.0928C55.0776 33.3713 54.972 33.7856 54.972 34.3358ZM63.9558 36.8049H62.6286L60.4862 33.0793H60.4559C60.4986 33.7373 60.5199 34.2067 60.5199 34.4874V36.8049H59.5868V31.8802H60.9039L63.0429 35.5687H63.0665C63.0328 34.9286 63.016 34.4761 63.016 34.2112V31.8802H63.9558V36.8049ZM68.1057 35.4373C68.1057 35.8819 67.9452 36.2322 67.624 36.4882C67.3052 36.7443 66.8605 36.8723 66.2901 36.8723C65.7646 36.8723 65.2998 36.7734 64.8956 36.5758V35.6057C65.2279 35.7539 65.5086 35.8583 65.7377 35.919C65.969 35.9796 66.1801 36.0099 66.371 36.0099C66.6 36.0099 66.7752 35.9661 66.8964 35.8786C67.02 35.791 67.0817 35.6607 67.0817 35.4878C67.0817 35.3912 67.0548 35.3059 67.0009 35.2318C66.947 35.1555 66.8673 35.0825 66.7617 35.0129C66.6584 34.9432 66.4462 34.8321 66.1251 34.6794C65.8241 34.5379 65.5985 34.402 65.448 34.2718C65.2975 34.1415 65.1774 33.99 65.0876 33.817C64.9977 33.6441 64.9528 33.442 64.9528 33.2107C64.9528 32.7751 65.0999 32.4326 65.3941 32.1833C65.6905 31.9341 66.0992 31.8094 66.6202 31.8094C66.8762 31.8094 67.1199 31.8397 67.3512 31.9004C67.5847 31.961 67.8284 32.0463 68.0822 32.1564L67.7453 32.9682C67.4826 32.8604 67.2647 32.7852 67.0918 32.7425C66.9212 32.6998 66.7527 32.6785 66.5865 32.6785C66.3889 32.6785 66.2373 32.7245 66.1318 32.8166C66.0263 32.9087 65.9735 33.0288 65.9735 33.177C65.9735 33.2691 65.9948 33.3499 66.0375 33.4196C66.0802 33.4869 66.1475 33.5532 66.2396 33.6183C66.3339 33.6812 66.5551 33.7957 66.9032 33.9619C67.3635 34.182 67.6791 34.4032 67.8497 34.6255C68.0204 34.8456 68.1057 35.1162 68.1057 35.4373ZM70.8982 36.8049H69.854V32.7492H68.5167V31.8802H72.2355V32.7492H70.8982V36.8049ZM74.0376 34.0663H74.3745C74.7046 34.0663 74.9483 34.0113 75.1054 33.9013C75.2626 33.7912 75.3412 33.6183 75.3412 33.3825C75.3412 33.149 75.2604 32.9828 75.0987 32.884C74.9393 32.7852 74.6911 32.7358 74.3543 32.7358H74.0376V34.0663ZM74.0376 34.9152V36.8049H72.9934V31.8802H74.4284C75.0976 31.8802 75.5928 32.0026 75.9139 32.2473C76.235 32.4899 76.3956 32.8593 76.3956 33.3556C76.3956 33.6452 76.3159 33.9035 76.1564 34.1303C75.997 34.3549 75.7713 34.5312 75.4793 34.6592C76.2204 35.7663 76.7032 36.4815 76.9278 36.8049H75.769L74.5934 34.9152H74.0376ZM81.5561 31.8802V35.0667C81.5561 35.4305 81.4741 35.7494 81.3102 36.0234C81.1485 36.2974 80.9138 36.5073 80.6062 36.6533C80.2985 36.7993 79.9347 36.8723 79.5148 36.8723C78.8815 36.8723 78.3897 36.7106 78.0394 36.3872C77.6891 36.0616 77.5139 35.6169 77.5139 35.0533V31.8802H78.5548V34.895C78.5548 35.2745 78.6311 35.5529 78.7838 35.7303C78.9365 35.9077 79.1892 35.9965 79.5417 35.9965C79.8831 35.9965 80.1301 35.9077 80.2828 35.7303C80.4378 35.5507 80.5152 35.27 80.5152 34.8882V31.8802H81.5561ZM84.8538 32.6785C84.4609 32.6785 84.1566 32.8267 83.941 33.1231C83.7254 33.4173 83.6176 33.8283 83.6176 34.356C83.6176 35.4541 84.0297 36.0032 84.8538 36.0032C85.1997 36.0032 85.6185 35.9167 86.1103 35.7438V36.6196C85.7061 36.788 85.2547 36.8723 84.7562 36.8723C84.0398 36.8723 83.4919 36.6556 83.1123 36.2221C82.7328 35.7865 82.5431 35.1622 82.5431 34.3493C82.5431 33.8373 82.6363 33.3892 82.8226 33.0052C83.009 32.619 83.2763 32.3237 83.6243 32.1193C83.9747 31.9127 84.3845 31.8094 84.8538 31.8094C85.3322 31.8094 85.8127 31.9251 86.2956 32.1564L85.9587 33.0052C85.7746 32.9177 85.5893 32.8413 85.4029 32.7762C85.2165 32.7111 85.0335 32.6785 84.8538 32.6785ZM89.0611 36.8049H88.0168V32.7492H86.6796V31.8802H90.3984V32.7492H89.0611V36.8049ZM91.1563 36.8049V31.8802H92.2005V36.8049H91.1563ZM97.9101 34.3358C97.9101 35.151 97.708 35.7775 97.3038 36.2154C96.8995 36.6533 96.3202 36.8723 95.5656 36.8723C94.8111 36.8723 94.2317 36.6533 93.8275 36.2154C93.4233 35.7775 93.2212 35.1487 93.2212 34.3291C93.2212 33.5094 93.4233 32.884 93.8275 32.4528C94.234 32.0194 94.8156 31.8027 95.5724 31.8027C96.3292 31.8027 96.9074 32.0205 97.3071 32.4562C97.7091 32.8918 97.9101 33.5184 97.9101 34.3358ZM94.3159 34.3358C94.3159 34.886 94.4203 35.3003 94.6292 35.5788C94.838 35.8572 95.1502 35.9965 95.5656 35.9965C96.3988 35.9965 96.8153 35.4429 96.8153 34.3358C96.8153 33.2264 96.401 32.6718 95.5724 32.6718C95.1569 32.6718 94.8436 32.8121 94.6326 33.0928C94.4215 33.3713 94.3159 33.7856 94.3159 34.3358ZM103.3 36.8049H101.972L99.8301 33.0793H99.7998C99.8425 33.7373 99.8638 34.2067 99.8638 34.4874V36.8049H98.9307V31.8802H100.248L102.387 35.5687H102.41C102.377 34.9286 102.36 34.4761 102.36 34.2112V31.8802H103.3V36.8049Z" fill="#1A202C"/>
<path d="M153.5 1.5H1.5V42.5H153.5V1.5Z" stroke="#1A202C" stroke-width="3"/>
</g>
<defs>
<clipPath id="clip0_117_36">
<rect width="155" height="44" fill="white"/>
</clipPath>
</defs>
</svg>
